<?xml version="1.0" encoding="utf-8"?>
<!-- Generator: Adobe Illustrator 22.0.0, SVG Export Plug-In . SVG Version: 6.00 Build 0)  -->
<svg version="1.1" id="Capa_1" xmlns="http://www.w3.org/2000/svg" xmlns:xlink="http://www.w3.org/1999/xlink" x="0px" y="0px"
	 viewBox="0 0 298.8 170.9" style="enable-background:new 0 0 298.8 170.9;" xml:space="preserve">
<style type="text/css">
	.st0{fill:#A67924;}
</style>
<g>
	<path class="st0" d="M194.4,78.7V26.6l-45.1-26l-45.1,26v52.1l45.1,26L194.4,78.7z M187.9,30.3V75l-3.8,2.2l-31-51.8l6.5-11.4
		L187.9,30.3z M130.8,64.1l18.2-31.7l19,31.7H130.8z M149.2,8l4.3,2.5l-30.8,53.6h-12.2V30.3L149.2,8z M110.6,75v-3.9h61.7l5.7,9.6
		l-28.8,16.6L110.6,75z"/>
	<g>
		<g>
			<path class="st0" d="M14.1,127v2.6c-1.8-0.9-3.4-1.3-4.9-1.3c-1.9,0-3.5,0.6-4.8,1.9s-2,2.8-2,4.6c0,1.8,0.7,3.4,2,4.6
				s3,1.8,5,1.8c1.5,0,3-0.5,4.6-1.4v2.6c-1.5,0.8-3.1,1.2-4.8,1.2c-2.5,0-4.7-0.9-6.5-2.6c-1.8-1.7-2.7-3.8-2.7-6.3
				c0-2.4,0.9-4.5,2.6-6.2c1.8-1.7,3.9-2.6,6.4-2.6C10.8,125.9,12.4,126.3,14.1,127z"/>
			<path class="st0" d="M16.1,134.6c0-2.4,0.9-4.4,2.7-6.1c1.8-1.7,3.9-2.5,6.4-2.5c2.4,0,4.5,0.9,6.3,2.6c1.8,1.7,2.6,3.7,2.6,6.1
				c0,2.5-0.9,4.6-2.6,6.3s-3.9,2.6-6.4,2.6c-2.5,0-4.6-0.9-6.4-2.6S16.1,137.1,16.1,134.6z M31.7,134.7c0-1.8-0.7-3.4-2-4.6
				s-2.9-1.9-4.8-1.9c-1.8,0-3.4,0.6-4.6,1.9c-1.3,1.3-1.9,2.8-1.9,4.6c0,1.8,0.7,3.3,2,4.6c1.3,1.2,2.9,1.9,4.9,1.9
				c1.8,0,3.3-0.6,4.6-1.9S31.7,136.5,31.7,134.7z"/>
			<path class="st0" d="M37.4,126.5h2.2v14.3h5.3v2.2h-7.5V126.5z"/>
			<path class="st0" d="M47,126.5H56v2.3h-6.9v4.1H56v2.2h-6.9v5.7H56v2.2H47V126.5z"/>
			<path class="st0" d="M74.4,129.1l-1.7,1.6c-1.7-1.6-3.6-2.5-5.8-2.5c-1.9,0-3.5,0.6-4.8,1.9s-1.9,2.8-1.9,4.7
				c0,1.6,0.6,3.1,1.9,4.4c1.2,1.3,2.9,2,5.1,2c3.3,0,5.3-1.4,6.1-4.3H69v-2.3h7c0,1.1-0.1,2-0.2,2.7s-0.5,1.4-0.9,2.2
				c-0.5,0.8-1.1,1.5-1.9,2.2c-0.8,0.6-1.6,1.1-2.5,1.4c-0.9,0.3-2,0.4-3.2,0.4c-2.8,0-5.1-0.9-6.8-2.7c-1.7-1.8-2.5-3.8-2.5-6.1
				c0-2.4,0.9-4.5,2.6-6.2c1.7-1.7,3.8-2.6,6.2-2.6c1.5,0,2.8,0.2,4,0.7C72,127.1,73.2,127.9,74.4,129.1z"/>
			<path class="st0" d="M78.9,126.5h2.2V143h-2.2V126.5z"/>
			<path class="st0" d="M84,134.6c0-2.4,0.9-4.4,2.7-6.1c1.8-1.7,3.9-2.5,6.4-2.5c2.4,0,4.5,0.9,6.3,2.6c1.8,1.7,2.6,3.7,2.6,6.1
				c0,2.5-0.9,4.6-2.6,6.3s-3.9,2.6-6.4,2.6c-2.5,0-4.6-0.9-6.4-2.6S84,137.1,84,134.6z M99.6,134.7c0-1.8-0.7-3.4-2-4.6
				s-2.9-1.9-4.8-1.9c-1.8,0-3.4,0.6-4.6,1.9c-1.3,1.3-1.9,2.8-1.9,4.6c0,1.8,0.7,3.3,2,4.6c1.3,1.2,2.9,1.9,4.9,1.9
				c1.8,0,3.3-0.6,4.6-1.9S99.6,136.5,99.6,134.7z"/>
			<path class="st0" d="M112.2,126.5h4c3.1,0,5.5,0.8,7,2.5c1.5,1.7,2.3,3.6,2.3,5.7c0,2.2-0.8,4.1-2.4,5.7
				c-1.6,1.7-3.9,2.5-6.9,2.5h-4V126.5z M114.4,128.7v12.1h0.1c1.7,0,2.9-0.1,3.7-0.2c0.8-0.2,1.6-0.5,2.4-1s1.4-1.2,1.8-2
				c0.4-0.8,0.7-1.8,0.7-2.8c0-1.3-0.4-2.4-1.1-3.4s-1.6-1.7-2.5-2.1c-1-0.4-2.3-0.5-4-0.5H114.4z"/>
			<path class="st0" d="M127.9,126.5h9.1v2.3h-6.9v4.1h6.9v2.2h-6.9v5.7h6.9v2.2h-9.1V126.5z"/>
			<path class="st0" d="M152.9,125.8l7.7,17.1h-2.3l-1.9-4.2h-6.9l-1.9,4.2h-2.3L152.9,125.8z M152.9,131l-2.6,5.9h5.3L152.9,131z"
				/>
			<path class="st0" d="M163,126.5h3.5c1.8,0,3.2,0.4,4.3,1.3c1.1,0.9,1.7,2,1.7,3.4c0,1.1-0.4,2.1-1.1,2.9
				c-0.7,0.8-1.8,1.4-3.4,1.8l4.7,7.1h-2.6l-4.5-6.8h-0.5v6.8H163V126.5z M165.2,128.5v5.7c3.3,0.1,4.9-0.9,4.9-2.9
				c0-0.7-0.2-1.3-0.6-1.7c-0.4-0.4-0.9-0.7-1.5-0.9S166.5,128.5,165.2,128.5z"/>
			<path class="st0" d="M190.3,141.2l2.6,2.8H190l-1.4-1.5c-1.5,0.7-3,1.1-4.4,1.1c-2.5,0-4.6-0.9-6.4-2.6c-1.8-1.7-2.6-3.8-2.6-6.3
				c0-2.4,0.9-4.4,2.7-6.1c1.8-1.7,3.9-2.5,6.4-2.5c2.5,0,4.6,0.8,6.3,2.5c1.8,1.7,2.7,3.7,2.7,6.1
				C193.2,137.2,192.2,139.4,190.3,141.2z M186.9,140.6l-3.6-3.9h2.9l2.5,2.7c1.4-1.3,2.1-2.9,2.1-4.8c0-1.8-0.6-3.4-1.9-4.6
				c-1.3-1.2-2.9-1.9-4.8-1.9c-1.8,0-3.4,0.6-4.7,1.9c-1.3,1.3-1.9,2.8-1.9,4.6s0.7,3.3,2,4.6c1.3,1.3,2.9,1.9,4.8,1.9
				C185,141.2,185.9,141,186.9,140.6z"/>
			<path class="st0" d="M196,126.5h2.2v10.1c0,1.5,0.4,2.7,1.1,3.5c0.7,0.8,1.7,1.2,3,1.2c1.3,0,2.3-0.4,3-1.1s1.1-1.8,1.1-3.2
				v-10.5h2.2v10.4c0,2-0.6,3.6-1.7,4.8s-2.7,1.8-4.6,1.8c-1.9,0-3.5-0.6-4.7-1.8c-1.2-1.2-1.8-3-1.8-5.4V126.5z"/>
			<path class="st0" d="M211.9,126.5h2.2V143h-2.2V126.5z"/>
			<path class="st0" d="M216.7,126.5h10v2.3h-3.9V143h-2.2v-14.2h-3.9V126.5z"/>
			<path class="st0" d="M229,126.5h9.1v2.3h-6.9v4.1h6.9v2.2h-6.9v5.7h6.9v2.2H229V126.5z"/>
			<path class="st0" d="M253.9,127v2.6c-1.8-0.9-3.4-1.3-4.9-1.3c-1.9,0-3.5,0.6-4.8,1.9s-2,2.8-2,4.6c0,1.8,0.7,3.4,2,4.6
				s3,1.8,5,1.8c1.5,0,3-0.5,4.6-1.4v2.6c-1.5,0.8-3.1,1.2-4.8,1.2c-2.5,0-4.7-0.9-6.5-2.6c-1.8-1.7-2.7-3.8-2.7-6.3
				c0-2.4,0.9-4.5,2.6-6.2c1.8-1.7,3.9-2.6,6.4-2.6C250.6,125.9,252.2,126.3,253.9,127z"/>
			<path class="st0" d="M255.6,126.5h10v2.3h-3.9V143h-2.2v-14.2h-3.9V126.5z"/>
			<path class="st0" d="M266.9,134.6c0-2.4,0.9-4.4,2.7-6.1c1.8-1.7,3.9-2.5,6.4-2.5c2.4,0,4.5,0.9,6.3,2.6c1.8,1.7,2.6,3.7,2.6,6.1
				c0,2.5-0.9,4.6-2.6,6.3s-3.9,2.6-6.4,2.6c-2.5,0-4.6-0.9-6.4-2.6S266.9,137.1,266.9,134.6z M282.5,134.7c0-1.8-0.7-3.4-2-4.6
				s-2.9-1.9-4.8-1.9c-1.8,0-3.4,0.6-4.6,1.9c-1.3,1.3-1.9,2.8-1.9,4.6c0,1.8,0.7,3.3,2,4.6c1.3,1.2,2.9,1.9,4.9,1.9
				c1.8,0,3.3-0.6,4.6-1.9S282.5,136.5,282.5,134.7z"/>
			<path class="st0" d="M297.8,128.3l-1.8,1.5c-0.5-0.5-0.9-0.9-1.3-1.1s-0.9-0.4-1.7-0.4c-0.8,0-1.5,0.2-2,0.5
				c-0.5,0.4-0.7,0.8-0.7,1.4c0,0.5,0.2,0.9,0.7,1.3c0.4,0.4,1.2,0.8,2.2,1.3c1,0.5,1.9,0.9,2.5,1.3c0.6,0.4,1.1,0.8,1.4,1.3
				c0.4,0.5,0.7,1,0.8,1.5c0.2,0.5,0.3,1.1,0.3,1.7c0,1.4-0.5,2.5-1.5,3.5c-1,1-2.2,1.4-3.6,1.4c-1.4,0-2.6-0.4-3.6-1.1
				c-1-0.8-1.9-1.9-2.4-3.4l2.2-0.6c0.8,1.9,2.1,2.8,3.7,2.8c0.8,0,1.5-0.2,2-0.7c0.5-0.5,0.8-1.1,0.8-1.9c0-0.4-0.1-0.9-0.4-1.3
				c-0.3-0.5-0.6-0.8-1.1-1.1c-0.4-0.3-1.1-0.6-2-1c-0.9-0.4-1.6-0.7-2.1-1c-0.5-0.3-0.9-0.7-1.3-1.1s-0.6-0.9-0.8-1.3
				c-0.2-0.4-0.3-0.9-0.3-1.4c0-1.2,0.5-2.2,1.4-3c0.9-0.8,2.1-1.2,3.4-1.2c0.9,0,1.8,0.2,2.7,0.6
				C296.4,126.9,297.2,127.5,297.8,128.3z"/>
		</g>
	</g>
	<g>
		<g>
			<path class="st0" d="M102.9,154.1h4c3.1,0,5.5,0.8,7,2.5c1.5,1.7,2.3,3.6,2.3,5.7c0,2.2-0.8,4.1-2.4,5.7
				c-1.6,1.7-3.9,2.5-6.9,2.5h-4V154.1z M105.2,156.3v12.1h0.1c1.7,0,2.9-0.1,3.8-0.2c0.8-0.2,1.6-0.5,2.4-1s1.4-1.2,1.8-2
				s0.7-1.8,0.7-2.8c0-1.3-0.4-2.4-1.1-3.4s-1.6-1.7-2.6-2.1c-1-0.4-2.3-0.5-4-0.5H105.2z"/>
			<path class="st0" d="M118.6,154.1h9.1v2.3h-6.9v4.1h6.9v2.2h-6.9v5.7h6.9v2.2h-9.1V154.1z"/>
			<path class="st0" d="M130.6,154.1h2.2v14.3h5.3v2.2h-7.5V154.1z"/>
			<path class="st0" d="M148.2,154.1h3.3c1.9,0,3.4,0.4,4.5,1.3c1.1,0.9,1.7,2,1.7,3.4c0,1.4-0.6,2.6-1.8,3.6c-1.2,1-3,1.4-5.5,1.4
				v6.8h-2.2V154.1z M150.4,156v5.8c1.7,0,2.9-0.3,3.7-0.7s1.2-1.2,1.2-2.2c0-0.8-0.3-1.4-0.9-2C153.8,156.3,152.5,156,150.4,156z"
				/>
			<path class="st0" d="M160.7,154.1h9.1v2.3h-6.9v4.1h6.9v2.2h-6.9v5.7h6.9v2.2h-9.1V154.1z"/>
			<path class="st0" d="M172.7,154.1h3.5c1.8,0,3.2,0.4,4.3,1.3c1.1,0.9,1.7,2,1.7,3.4c0,1.1-0.4,2.1-1.1,2.9s-1.8,1.4-3.4,1.8
				l4.8,7.1H180l-4.5-6.8H175v6.8h-2.2V154.1z M175,156.1v5.7c3.3,0.1,4.9-0.9,4.9-2.9c0-0.7-0.2-1.3-0.6-1.7
				c-0.4-0.4-0.9-0.7-1.5-0.9S176.2,156.1,175,156.1z"/>
			<path class="st0" d="M185.5,154.1h2.2v10.1c0,1.5,0.4,2.7,1.1,3.5c0.7,0.8,1.7,1.2,3,1.2c1.3,0,2.3-0.4,3-1.1s1.1-1.8,1.1-3.2
				v-10.5h2.2v10.4c0,2-0.6,3.6-1.7,4.8s-2.7,1.8-4.6,1.8c-1.9,0-3.5-0.6-4.7-1.8s-1.8-3-1.8-5.4V154.1z M190.3,152.4l1.7-3.6h3
				l-2.8,3.6H190.3z"/>
		</g>
	</g>
</g>
</svg>
